<svg width="16" height="16" viewBox="0 0 16 16" fill="none" xmlns="http://www.w3.org/2000/svg">
<path d="M0.733805 0.733973C1.15687 0.310905 1.8428 0.310905 2.26587 0.733973L7.99984 6.46794L13.7338 0.733973C14.1569 0.310905 14.8428 0.310905 15.2659 0.733973C15.6889 1.15704 15.6889 1.84297 15.2659 2.26604L9.5319 8L15.2659 13.734C15.6889 14.157 15.6889 14.843 15.2659 15.266C14.8428 15.6891 14.1569 15.6891 13.7338 15.266L7.99984 9.53207L2.26587 15.266C1.8428 15.6891 1.15687 15.6891 0.733805 15.266C0.310737 14.843 0.310737 14.157 0.733805 13.734L6.46777 8L0.733805 2.26604C0.310737 1.84297 0.310737 1.15704 0.733805 0.733973Z" fill="white"/>
</svg>
